# xmcd
#
# Track frame offsets: 
#        155
#        19180
#        31745
#
# Disc length: 678 seconds
#
# Revision: 1
# Processed by: cddbd v1.5.2PL0 Copyright (c) Steve Scherf et al.
# Submitted via: ExactAudioCopy v1.3
#
DISCID=1702a403
DTITLE=Wynonna - No one else on earth '94
DYEAR=1994
DGENRE=Country
TTITLE0=No one else on earth '94
TTITLE1=What it takes
TTITLE2=When I reach the place I'm goin'
EXTD=
EXTT0=
EXTT1=
EXTT2=
PLAYORDER=
